<svg width="24" height="25" viewBox="0 0 24 25" fill="none" xmlns="http://www.w3.org/2000/svg">
<path d="M9.65185 0.559998C4.36006 0.559998 0.0800018 4.74195 0.0800018 9.91243C0.0800018 15.0829 4.36006 19.2649 9.65185 19.2649C11.5411 19.2649 13.2897 18.7233 14.7721 17.8035L21.687 24.56L24.08 22.2219L17.253 15.5686C18.4803 13.9955 19.2237 12.0464 19.2237 9.91243C19.2237 4.74195 14.9436 0.559998 9.65185 0.559998ZM9.65185 2.76057C13.7054 2.76057 16.9715 5.95183 16.9715 9.91243C16.9715 13.873 13.7054 17.0643 9.65185 17.0643C5.59833 17.0643 2.3322 13.873 2.3322 9.91243C2.3322 5.95183 5.59833 2.76057 9.65185 2.76057Z" fill="#C98686"/>
</svg>
